<svg width="17" height="16" viewBox="0 0 17 16" fill="none" xmlns="http://www.w3.org/2000/svg">
<path d="M4.2644 14.766C3.182 14.142 2.3047 13.2499 1.6324 12.0898C0.9595 10.9302 0.623001 9.5891 0.623001 8.0683C0.623001 6.6842 0.944803 5.4068 1.5882 4.2372C2.2316 3.0676 3.109 2.14134 4.2208 1.45903C5.3321 0.776711 6.55 0.435551 7.8764 0.435551C8.8121 0.435551 9.6652 0.59169 10.4348 0.90339C11.2049 1.21509 11.7947 1.63461 12.2042 2.16079V0.844471H16.0648V15.2922H12.2042V13.9759C11.5997 14.5415 10.9562 14.9699 10.2739 15.2627C9.591 15.555 8.7137 15.7017 7.6413 15.7017C6.4723 15.7023 5.3468 15.39 4.2644 14.766ZM11.298 10.9644C12.0192 10.1848 12.3804 9.2197 12.3804 8.0689C12.3804 6.9188 12.0192 5.9536 11.298 5.1735C10.5768 4.3939 9.6211 4.0039 8.432 4.0039C7.2424 4.0039 6.2866 4.3945 5.5654 5.1735C4.8442 5.9536 4.4836 6.9188 4.4836 8.0689C4.4836 9.2197 4.8442 10.1848 5.5654 10.9644C6.2866 11.7445 7.2418 12.134 8.432 12.134C9.6211 12.134 10.5768 11.7445 11.298 10.9644Z" fill="black"/>
</svg>
