<svg width="11" height="16" viewBox="0 0 11 16" fill="none" xmlns="http://www.w3.org/2000/svg">
<path d="M0.0350037 14.2948L0.913002 10.6682H1.088C2.355 11.6434 3.652 12.1306 4.978 12.1306C5.524 12.1306 5.967 12.0281 6.309 11.8237C6.65 11.6192 6.821 11.3222 6.821 10.9316C6.821 10.5221 6.62 10.1909 6.221 9.9376C5.821 9.6842 5.075 9.3725 3.984 9.0013C2.873 8.6313 2.01 8.0945 1.396 7.3927C0.782004 6.6909 0.473999 5.8625 0.473999 4.9068C0.473999 3.56159 0.976003 2.47919 1.98 1.66017C2.984 0.841151 4.256 0.431641 5.797 0.431641C6.577 0.431641 7.269 0.5047 7.874 0.65083C8.478 0.79696 9.053 1.03618 9.599 1.36732L9.746 5.0523H9.541C8.839 4.6039 8.215 4.2681 7.669 4.0436C7.123 3.81967 6.509 3.70712 5.827 3.70712C5.339 3.70712 4.939 3.80494 4.628 3.99938C4.316 4.1944 4.16 4.4484 4.16 4.7601C4.16 5.1696 4.355 5.506 4.745 5.7694C5.134 6.0328 5.866 6.3498 6.938 6.7198C8.166 7.1293 9.097 7.6266 9.731 8.2117C10.365 8.7962 10.682 9.703 10.682 10.9316C10.682 11.9456 10.428 12.8135 9.921 13.5348C9.414 14.2565 8.746 14.7975 7.917 15.1581C7.089 15.5187 6.177 15.699 5.183 15.699C3.174 15.699 1.458 15.2311 0.0350037 14.2948Z" fill="black"/>
</svg>
