<svg width="15" height="16" viewBox="0 0 15 16" fill="none" xmlns="http://www.w3.org/2000/svg">
<path d="M4.12001 14.6763C2.91101 13.9939 1.961 13.063 1.269 11.8834C0.576005 10.7037 0.230011 9.3927 0.230011 7.9497C0.230011 6.5462 0.557007 5.2735 1.21001 4.1333C1.86401 2.99258 2.77101 2.09107 3.93101 1.4282C5.09001 0.76533 6.40201 0.43359 7.86401 0.43359C9.34501 0.43359 10.628 0.78006 11.71 1.4718C12.791 2.16414 13.61 3.08509 14.166 4.2358C14.722 5.3866 15 6.6245 15 7.9503V9.091H3.91501C4.14901 10.1834 4.65101 11.0119 5.42101 11.577C6.19201 12.1426 7.21 12.4248 8.478 12.4248C10.408 12.4248 12.094 11.7914 13.537 10.524H13.947L13.8 14.1795C12.923 14.6869 11.997 15.0669 11.022 15.3203C10.047 15.5736 9.111 15.7003 8.214 15.7003C6.694 15.6997 5.32901 15.3586 4.12001 14.6763ZM11.14 6.4578C11.042 5.5804 10.676 4.8928 10.043 4.3961C9.40901 3.8994 8.63401 3.65016 7.71801 3.65016C6.82101 3.65016 6.03601 3.88938 5.36301 4.3666C4.69101 4.8445 4.23701 5.5416 4.00301 6.4578H11.14Z" fill="black"/>
</svg>
