<svg width="17" height="16" viewBox="0 0 17 16" fill="none" xmlns="http://www.w3.org/2000/svg">
<path d="M4.7951 14.6922C3.576 14.0193 2.6109 13.0983 1.8997 11.9281C1.1873 10.7585 0.832001 9.4711 0.832001 8.0676C0.832001 6.664 1.1873 5.3772 1.8997 4.207C2.6109 3.03736 3.576 2.11582 4.7951 1.44293C6.013 0.77004 7.3347 0.43359 8.7582 0.43359C10.1812 0.43359 11.5022 0.77004 12.7213 1.44293C13.9392 2.11582 14.9044 3.03678 15.6167 4.207C16.3279 5.3766 16.6844 6.664 16.6844 8.0676C16.6844 9.4711 16.3285 10.7579 15.6167 11.9281C14.9044 13.0977 13.9392 14.0193 12.7213 14.6922C11.5022 15.3651 10.1812 15.7015 8.7582 15.7015C7.3347 15.7015 6.0136 15.3651 4.7951 14.6922ZM10.791 11.6217C11.405 11.2806 11.897 10.798 12.2676 10.174C12.6376 9.55 12.8238 8.8483 12.8238 8.0681C12.8238 7.2886 12.6382 6.5868 12.2676 5.9623C11.897 5.3383 11.405 4.8557 10.791 4.5145C10.1771 4.1734 9.4989 4.0025 8.7582 4.0025C8.017 4.0025 7.34 4.1734 6.7254 4.5145C6.1114 4.8557 5.6188 5.3383 5.2482 5.9623C4.877 6.5862 4.6926 7.2886 4.6926 8.0681C4.6926 8.8483 4.877 9.55 5.2482 10.174C5.6183 10.798 6.1108 11.2806 6.7254 11.6217C7.3394 11.9629 8.0164 12.1338 8.7582 12.1338C9.4989 12.1332 10.1765 11.9629 10.791 11.6217Z" fill="black"/>
</svg>
